<svg id="Layer_1" data-name="Layer 1" xmlns="http://www.w3.org/2000/svg" viewBox="0 0 854.43 222.49"><defs><style>.cls-1{fill:#fff;}</style></defs><path class="cls-1" d="M176.48,5.08q6.2,0,6.19,9.47l-9.34,15.67q34.6,47.88,34.61,72.51v25.14q0,37.9-44.09,78.83Q142.13,220,94.5,222.49q-52.3,0-88.18-69.35L0,121.68v-9.47Q0,47.65,56.72,5.08ZM40.93,140.5q17.68,56.73,59.88,56.73h25.27q37.14,0,53.44-63V121.68q0-51.42-69.23-66.2H104Q40.92,55.48,40.93,140.5Z"/><path class="cls-1" d="M262.54,178.78H248.27q-24.77-4.29-24.76-23.37V58.14c0-5.23-2.58-7.84-7.71-7.84L214.41,49V45.12l2.65-2.65h31.21l2.52,2.65V159.33l3.92,3.91h3.92c2.6-.92,3.91-3.53,3.91-7.83Z"/><path class="cls-1" d="M347.08,43.48l4,4V149.6q0,14,14,16v4.05q-3.91,9.09-8,10h-14q-12.14-7.84-12.13-14-12,16.05-26,16.05-36,0-36-38,0-48.14,36-48.13l24.13,12V65.46q0-13-10.1-20l2-2ZM291,135.58v14q4.93,14,20.09,14h2q14,0,14-14V131.66q0-13.77-18.06-16Q291,121.8,291,135.58Z"/><path class="cls-1" d="M431.5,1.92h97.65l6.32,6.31-19,40.94L472.43,36.53q-25.14,0-25.14,28.43,0,20.6,62.91,56.72,12.63,16.42,12.63,34.61v3.16q-4.17,30.83-37.77,56.73H371.62V213q12.63-16.94,12.63-28.43l-6.32-22h3.16q21,25.14,59.88,25.14,34.62-11.37,34.62-37.77,0-22.86-75.68-72.52Q390.57,57,390.57,39.69,390.57,7,431.5,1.92Z"/><path class="cls-1" d="M558,92q10.35,2.91,20,12,14.4-12,24-12,31.84,0,38,41.94,0,27.56-22,42.07H594l-14-12v50q8,0,8,4l-2,2h-26l-3.91-4V118q0-10.36-6.07-12l-7.95,1.89V104Q547.49,92,558,92Zm22,26v36q3.28,8,14,8,15.16,0,17.94-20V124q-6.95-14-17.94-14Q580,114.73,580,118Z"/><path class="cls-1" d="M681.68,168.68q8.34,1.26,8.34,5v1.64l-3.28,3.41H656.42l-3.29-3.41V106.65q-6.69,0-6.69-5.06V99.82l3.41-3.41h28.42l3.41,3.41Z"/><path class="cls-1" d="M722,95.53h42.57l2.15,2.15h2.15a57.86,57.86,0,0,1-17.06,23.37l-12.76-4.17h-6.44q-19.08,8.09-19.08,31.84,7.08,21.35,23.37,21.35h10.62l17.05-4.3v2.15q-6.95,12.77-32,12.76-28.8,0-36.13-40.43v-8.59Q696.49,103,722,95.53Z"/><path class="cls-1" d="M844.07,130.78q-13.52,20.72-38.91,20.71,7.71,14.28,20.72,14.28h1.26q14.4,0,23.37-10.36h1.26q2.65,0,2.66,3.92-11.5,22.11-36.39,22.1-30.06,0-42.82-35.12V134.69q0-20.2,24.63-35.12,6.45-3.91,16.93-3.91H822q10.49,0,22.11,11.74l1.26,1.27.25-.25L846,121.3A21.17,21.17,0,0,0,844.07,130.78Zm-40.3,9.09h1.39q18.06,0,24.63-19.45V116.5q0-2.52-7.83-5.18Q803.77,116.89,803.77,139.87Z"/><path class="cls-1" d="M665.61,78.14c1.69,0,3.56-1.94,1.79-6.38s.73-5.59.73-5.59v-1a26.1,26.1,0,0,0,7.7-1.94,26.4,26.4,0,0,0,6.47-3.93l.7.7s2.57-.95,4.46,3.44,4.59,4.44,5.78,3.25,1.14-3.89-3.25-5.78-3.43-4.47-3.43-4.47l-.7-.7a26,26,0,0,0,3.92-6.47,26.28,26.28,0,0,0,2-7.69h1s1.14-2.5,5.58-.73,6.38-.11,6.38-1.79-1.94-3.55-6.38-1.79-5.58-.73-5.58-.73h-1a26.28,26.28,0,0,0-2-7.69,26,26,0,0,0-3.92-6.47l.7-.7s-1-2.58,3.43-4.47,4.44-4.59,3.25-5.78-3.88-1.14-5.78,3.25S683,18.13,683,18.13l-.7.7a26.4,26.4,0,0,0-6.47-3.93,26.1,26.1,0,0,0-7.7-1.94V12s-2.49-1.14-.73-5.59S667.3,0,665.61,0s-3.55,1.94-1.78,6.38S663.1,12,663.1,12v1a26.1,26.1,0,0,0-7.7,1.94,26.4,26.4,0,0,0-6.47,3.93l-.7-.7s-2.57.95-4.46-3.44-4.59-4.44-5.78-3.25-1.14,3.89,3.25,5.78,3.43,4.47,3.43,4.47l.7.7a26,26,0,0,0-3.92,6.47,26.28,26.28,0,0,0-2,7.69h-1s-1.14,2.5-5.58.73-6.38.11-6.38,1.79,1.94,3.55,6.38,1.79,5.58.73,5.58.73h1a26.28,26.28,0,0,0,2,7.69,26,26,0,0,0,3.92,6.47l-.7.7s1,2.58-3.43,4.47S636.8,65.51,638,66.7s3.88,1.14,5.78-3.25S648.23,60,648.23,60l.7-.7a26.4,26.4,0,0,0,6.47,3.93,26.1,26.1,0,0,0,7.7,1.94v1s2.49,1.14.73,5.59S663.93,78.14,665.61,78.14ZM655.34,52.91l-.27-.41a1.56,1.56,0,0,1,.21-2l4.45-4.45a2.14,2.14,0,0,1,1.59-.64c.51.07.62-.31.6-.7a6.63,6.63,0,0,0,2.28.94c-.28.27-.48.61-.07.93a2.14,2.14,0,0,1,.68,1.57v.37h0v5.92A1.56,1.56,0,0,1,663.57,56l-.47.1v1.71a18.78,18.78,0,0,1-9-3.72Zm6-20.23a2.14,2.14,0,0,1-1.59-.64l-4.45-4.45a1.56,1.56,0,0,1-.21-1.95l.27-.41L654.13,24a18.68,18.68,0,0,1,9-3.72V22l.47.1a1.56,1.56,0,0,1,1.24,1.53v5.92h0v.37a2.14,2.14,0,0,1-.68,1.57c-.41.32-.21.66.07.92a6.85,6.85,0,0,0-2.28,1C661.94,33,661.83,32.61,661.32,32.68Zm14.57-7.45.27.41a1.56,1.56,0,0,1-.21,1.95l-4.18,4.19h0l-.27.26a2.14,2.14,0,0,1-1.59.64c-.51-.07-.62.31-.61.7a6.72,6.72,0,0,0-2.27-1c.28-.26.48-.6.07-.92a2.14,2.14,0,0,1-.68-1.57V23.65a1.56,1.56,0,0,1,1.24-1.53l.47-.1V20.31a18.72,18.72,0,0,1,9,3.72Zm-6,20.23a2.14,2.14,0,0,1,1.59.64l.27.26h0L676,50.55a1.56,1.56,0,0,1,.21,2l-.27.41,1.21,1.2a18.82,18.82,0,0,1-9,3.72V56.12l-.47-.1a1.56,1.56,0,0,1-1.24-1.53V48.2a2.14,2.14,0,0,1,.68-1.57c.41-.32.21-.66-.07-.92a6.72,6.72,0,0,0,2.27-1C669.29,45.15,669.4,45.53,669.91,45.46Zm10.75,5.09-1.21-1.2-.4.26a1.57,1.57,0,0,1-2-.2L672.64,45a2.16,2.16,0,0,1-.63-1.6c.06-.51-.32-.61-.7-.6a6.7,6.7,0,0,0,.94-2.27c.26.28.61.47.92.06a2.16,2.16,0,0,1,1.58-.67H681a1.56,1.56,0,0,1,1.53,1.23l.1.48h1.7A18.67,18.67,0,0,1,680.66,50.55Zm3.71-14h-1.7l-.1.48A1.56,1.56,0,0,1,681,38.26h-6.29a2.16,2.16,0,0,1-1.58-.67c-.31-.41-.66-.22-.92.06a6.7,6.7,0,0,0-.94-2.27c.38,0,.76-.09.7-.6a2.16,2.16,0,0,1,.63-1.6l4.45-4.45a1.57,1.57,0,0,1,2-.2l.4.26,1.21-1.2A18.67,18.67,0,0,1,684.37,36.55Zm-33.8-9,1.21,1.2.4-.26a1.57,1.57,0,0,1,2,.2l4.18,4.19h0l.27.26a2.16,2.16,0,0,1,.63,1.6c-.06.51.32.61.7.6a6.7,6.7,0,0,0-.94,2.27c-.26-.28-.61-.47-.92-.06a2.16,2.16,0,0,1-1.58.67h-6.29A1.56,1.56,0,0,1,648.66,37l-.1-.48h-1.7A18.67,18.67,0,0,1,650.57,27.59Zm-3.71,14h1.7l.1-.48a1.56,1.56,0,0,1,1.53-1.23h6.29a2.16,2.16,0,0,1,1.58.67c.31.41.66.22.92-.06a6.7,6.7,0,0,0,.94,2.27c-.38,0-.76.09-.7.6a2.16,2.16,0,0,1-.63,1.6l-.27.26h0l-4.18,4.19a1.57,1.57,0,0,1-2,.2l-.4-.26-1.21,1.2A18.67,18.67,0,0,1,646.86,41.59Z"/></svg>